<svg width="31" height="27" viewBox="0 0 31 27" fill="none" xmlns="http://www.w3.org/2000/svg">
<g clip-path="url(#clip0_1835_368502)">
<path d="M15.5 24.3604C21.0228 24.3604 25.5 19.8832 25.5 14.3604C25.5 8.8375 21.0228 4.36035 15.5 4.36035C9.97715 4.36035 5.5 8.8375 5.5 14.3604C5.5 19.8832 9.97715 24.3604 15.5 24.3604Z" fill="black"/>
<path d="M16.8238 8.06055H19.2206L18.8011 10.4203H16.4043L16.8238 8.06055Z" fill="#EBFF00"/>
<path d="M11.0551 10.4203L16.4043 10.4203L15.7038 14.3605H10.3546L11.0551 10.4203Z" fill="#EBFF00"/>
<path d="M20.3538 18.3008H15.0046L15.7051 14.3605H21.0543L20.3538 18.3008Z" fill="#EBFF00"/>
<path d="M14.5851 20.6605H12.1883L12.6078 18.3008L15.0046 18.3008L14.5851 20.6605Z" fill="#EBFF00"/>
</g>
<g filter="url(#filter0_f_1835_368502)">
<path fill-rule="evenodd" clip-rule="evenodd" d="M7.01212 7.36035C6.68046 7.51674 6.5 7.68503 6.5 7.86035C6.5 8.68878 10.5294 9.36035 15.5 9.36035C20.4706 9.36035 24.5 8.68878 24.5 7.86035C24.5 7.68503 24.3195 7.51674 23.9879 7.36035C22.7524 7.94295 19.4187 8.36035 15.5 8.36035C11.5813 8.36035 8.24763 7.94295 7.01212 7.36035ZM26.5 10.8603C26.5 11.6887 21.5751 12.3603 15.5 12.3603C9.42487 12.3603 4.5 11.6887 4.5 10.8603C4.5 10.7576 4.57575 10.6572 4.72004 10.5603C5.73923 11.0168 10.1783 11.3603 15.5 11.3603C20.8217 11.3603 25.2607 11.0167 26.28 10.5603C26.4243 10.6572 26.5 10.7576 26.5 10.8603ZM3.23972 13.3604C2.76067 13.5167 2.5 13.685 2.5 13.8604C2.5 14.6888 8.3203 15.3604 15.5 15.3604C22.6797 15.3604 28.5 14.6888 28.5 13.8604C28.5 13.685 28.2393 13.5167 27.7603 13.3604C25.9756 13.9429 21.1603 14.3604 15.5 14.3604C9.83972 14.3604 5.02435 13.9429 3.23972 13.3604ZM4.5 16.8604C4.5 16.685 4.72057 16.5167 5.12592 16.3604C6.63599 16.9429 10.7105 17.3604 15.5 17.3604C20.2895 17.3604 24.364 16.9429 25.8741 16.3604C26.2794 16.5167 26.5 16.685 26.5 16.8604C26.5 17.6888 21.5751 18.3604 15.5 18.3604C9.42487 18.3604 4.5 17.6888 4.5 16.8604ZM6.5 19.8604C6.5 19.685 6.68046 19.5167 7.01212 19.3604C8.24763 19.9429 11.5813 20.3604 15.5 20.3604C19.4187 20.3604 22.7524 19.9429 23.9879 19.3604C24.3195 19.5167 24.5 19.685 24.5 19.8604C24.5 20.6888 20.4706 21.3604 15.5 21.3604C10.5294 21.3604 6.5 20.6888 6.5 19.8604Z" fill="url(#paint0_linear_1835_368502)"/>
</g>
<g filter="url(#filter1_f_1835_368502)">
<path d="M6.85741 7.02967C8.36845 5.12218 9.70172 4.04922 14.4221 3.45312C21.9789 3.45312 24.5745 5.50148 25.747 8.81794C27.6437 14.1827 18.1918 19.5476 20.0806 17.1632C21.9694 14.7788 20.0806 8.16282 20.0806 11.2023C20.0806 15.3749 16.7193 19.1103 12.5332 18.3554C5.92253 17.1632 4.96861 9.41403 6.85741 7.02967Z" fill="url(#paint1_linear_1835_368502)"/>
</g>
<g filter="url(#filter2_f_1835_368502)">
<path d="M8 23.3604C5.6 21.3604 4.66667 17.527 4.5 15.8604C11 19.3604 12 15.8604 18.5 15.8604C23.7 15.8604 26.6667 18.527 27.5 19.8604C27 19.527 25.4 18.7604 23 18.3604C20 17.8604 16.5 20.8604 15.5 22.3604C14.5 23.8604 11 25.8604 8 23.3604Z" fill="url(#paint2_linear_1835_368502)"/>
</g>
<defs>
<filter id="filter0_f_1835_368502" x="0.5" y="5.36035" width="30" height="18" filterUnits="userSpaceOnUse" color-interpolation-filters="sRGB">
<feFlood flood-opacity="0" result="BackgroundImageFix"/>
<feBlend mode="normal" in="SourceGraphic" in2="BackgroundImageFix" result="shape"/>
<feGaussianBlur stdDeviation="1" result="effect1_foregroundBlur_1835_368502"/>
</filter>
<filter id="filter1_f_1835_368502" x="3" y="0.453125" width="26" height="21" filterUnits="userSpaceOnUse" color-interpolation-filters="sRGB">
<feFlood flood-opacity="0" result="BackgroundImageFix"/>
<feBlend mode="normal" in="SourceGraphic" in2="BackgroundImageFix" result="shape"/>
<feGaussianBlur stdDeviation="1.5" result="effect1_foregroundBlur_1835_368502"/>
</filter>
<filter id="filter2_f_1835_368502" x="2.5" y="13.8604" width="27" height="12.6855" filterUnits="userSpaceOnUse" color-interpolation-filters="sRGB">
<feFlood flood-opacity="0" result="BackgroundImageFix"/>
<feBlend mode="normal" in="SourceGraphic" in2="BackgroundImageFix" result="shape"/>
<feGaussianBlur stdDeviation="1" result="effect1_foregroundBlur_1835_368502"/>
</filter>
<linearGradient id="paint0_linear_1835_368502" x1="25" y1="21.3604" x2="11" y2="14.3603" gradientUnits="userSpaceOnUse">
<stop stop-color="#16EF94"/>
<stop offset="1" stop-color="#16EF94" stop-opacity="0"/>
</linearGradient>
<linearGradient id="paint1_linear_1835_368502" x1="22.9217" y1="4.64531" x2="16.5493" y2="20.5104" gradientUnits="userSpaceOnUse">
<stop stop-color="#16EF94"/>
<stop offset="1" stop-color="white" stop-opacity="0"/>
</linearGradient>
<linearGradient id="paint2_linear_1835_368502" x1="16" y1="15.8604" x2="16" y2="24.5464" gradientUnits="userSpaceOnUse">
<stop stop-color="#EBFF00" stop-opacity="0"/>
<stop offset="1" stop-color="#43E6F2"/>
</linearGradient>
<clipPath id="clip0_1835_368502">
<rect width="20" height="20" fill="white" transform="translate(5.5 4.36035)"/>
</clipPath>
</defs>
</svg>
