<svg width="15" height="16" viewBox="0 0 15 16" fill="none" xmlns="http://www.w3.org/2000/svg">
<path d="M0 2.75C0 1.50736 1.00736 0.5 2.25 0.5H12.75C13.9926 0.5 15 1.50736 15 2.75V13.25C15 14.4926 13.9926 15.5 12.75 15.5H2.25C1.00736 15.5 0 14.4926 0 13.25V2.75Z" fill="#12AAFF"/>
<g clip-path="url(#clip0_93_47511)">
<path d="M8.29231 8.79869L7.77419 10.1921C7.75903 10.2294 7.75903 10.2742 7.77419 10.3115L8.66131 12.7101L9.68997 12.1253L8.45659 8.7962C8.42879 8.72156 8.32011 8.72156 8.29231 8.79869Z" fill="white"/>
<path d="M9.32606 6.45237C9.29826 6.37523 9.18958 6.37523 9.15925 6.45237L8.64113 7.84573C8.62597 7.88554 8.62597 7.92784 8.64113 7.96516L10.0969 11.894L11.1256 11.3092L9.32606 6.45237Z" fill="white"/>
<path d="M7.50129 3.39941C7.52656 3.39941 7.55184 3.40687 7.57458 3.41931L11.4921 5.64621C11.5376 5.67109 11.5654 5.71837 11.5654 5.77062V10.2244C11.5654 10.2767 11.5376 10.3239 11.4921 10.3488L7.57458 12.5782C7.55184 12.5906 7.52656 12.5981 7.50129 12.5981C7.47601 12.5981 7.45074 12.5906 7.42799 12.5782L3.5105 10.3513C3.46501 10.3264 3.43721 10.2791 3.43721 10.2269V5.77062C3.43721 5.71837 3.46501 5.67109 3.5105 5.64621L7.42799 3.41931C7.45074 3.40687 7.47601 3.39941 7.50129 3.39941ZM7.50129 2.75C7.36228 2.75 7.22075 2.78732 7.0969 2.85699L3.17941 5.08389C2.93172 5.22571 2.77502 5.48697 2.77502 5.77062V10.2244C2.77502 10.5081 2.9292 10.7718 3.17941 10.9136L7.0969 13.1405C7.22075 13.2127 7.35975 13.2475 7.50129 13.2475C7.64282 13.2475 7.78183 13.2102 7.90567 13.1405L11.8232 10.9136C12.0734 10.7718 12.2276 10.5105 12.2276 10.2244V5.77062C12.2276 5.48697 12.0734 5.22322 11.8232 5.0814L7.90567 2.85699C7.7793 2.78732 7.6403 2.75 7.50129 2.75Z" fill="white"/>
<path d="M7.17012 5.45462H6.17685C6.10355 5.45462 6.03531 5.49941 6.01004 5.56908L3.88196 11.3167L4.91062 11.9014L7.25606 5.57156C7.27627 5.51434 7.23331 5.45462 7.17012 5.45462Z" fill="white"/>
<path d="M8.909 5.45462H7.91572C7.84243 5.45462 7.77419 5.49941 7.74891 5.56908L5.32007 12.1303L6.34873 12.715L8.9924 5.57156C9.01515 5.51434 8.96965 5.45462 8.909 5.45462Z" fill="white"/>
</g>
<defs>
<clipPath id="clip0_93_47511">
<rect width="10.5" height="10.5" fill="white" transform="translate(2.25 2.75)"/>
</clipPath>
</defs>
</svg>
