<svg width="44" height="44" viewBox="0 0 44 44" fill="none" xmlns="http://www.w3.org/2000/svg">
<g filter="url(#filter0_d_66_25863)">
<g clip-path="url(#clip0_66_25863)">
<circle cx="22" cy="18" r="18" fill="white"/>
<path d="M33.3542 7.55517L32.3657 8.54364C34.7244 11.123 36.0324 14.4916 36.0324 17.9868C36.0324 21.482 34.7244 24.8506 32.3657 27.43L33.3542 28.4184C35.9773 25.5732 37.4336 21.8451 37.4336 17.9753C37.4336 14.1054 35.9773 10.3773 33.3542 7.5321V7.55517Z" fill="#5A5564"/>
<path d="M12.5667 7.64089C15.1461 5.28225 18.5147 3.97425 22.0099 3.97425C25.505 3.97425 28.8737 5.28225 31.453 7.64089L32.4415 6.65242C29.5963 4.02936 25.8682 2.57306 21.9983 2.57306C18.1285 2.57306 14.4004 4.02936 11.5552 6.65242L12.5667 7.64089Z" fill="#5A5564"/>
<path d="M11.6408 27.4399C9.28498 24.8611 7.97871 21.4945 7.97871 18.0016C7.97871 14.5088 9.28498 11.1422 11.6408 8.56342L10.6524 7.57495C8.0293 10.4202 6.573 14.1483 6.573 18.0181C6.573 21.8879 8.0293 25.6161 10.6524 28.4613L11.6408 27.4399Z" fill="#5A5564"/>
<path d="M31.4399 28.3525C28.8605 30.7112 25.4919 32.0192 21.9967 32.0192C18.5015 32.0192 15.1329 30.7112 12.5535 28.3525L11.5651 29.341C14.4103 31.9641 18.1384 33.4204 22.0082 33.4204C25.8781 33.4204 29.6062 31.9641 32.4514 29.341L31.4399 28.3525Z" fill="#5A5564"/>
<path d="M28.2405 14.7018C28.0428 12.6392 26.2636 11.9472 24.0132 11.7364V8.89618H22.2735V11.6837C21.8155 11.6837 21.3476 11.6837 20.883 11.6837V8.89618H19.1565V11.7561H15.6277V13.6178C15.6277 13.6178 16.9127 13.5947 16.8929 13.6178C17.1246 13.5923 17.3572 13.6577 17.5416 13.8003C17.7259 13.9429 17.8478 14.1515 17.8814 14.3822V22.2108C17.8764 22.2922 17.8552 22.3717 17.819 22.4447C17.7828 22.5177 17.7323 22.5827 17.6705 22.6359C17.6099 22.69 17.539 22.7314 17.4619 22.7574C17.3849 22.7835 17.3035 22.7937 17.2224 22.7874C17.2455 22.8072 15.9572 22.7874 15.9572 22.7874L15.6277 24.8665H19.1236V27.7726H20.8633V24.9094H22.2537V27.7594H23.9967V24.8863C26.9358 24.7084 28.9852 23.9835 29.2422 21.2323C29.4498 19.0181 28.4086 18.0296 26.7446 17.6309C27.7562 17.1334 28.3822 16.2108 28.2405 14.7018ZM25.8023 20.8896C25.8023 23.051 22.0989 22.8039 20.9193 22.8039V18.9687C22.0989 18.972 25.8023 18.6326 25.8023 20.8896ZM24.9951 15.486C24.9951 17.4629 21.9045 17.2224 20.9226 17.2224V13.7364C21.9045 13.7364 24.9951 13.4267 24.9951 15.486Z" fill="#F09242"/>
<path d="M21.9967 36C18.4369 35.9993 14.9573 34.9432 11.9977 32.9651C9.03811 30.987 6.73151 28.1757 5.36955 24.8868C4.00758 21.5978 3.65139 17.9789 4.34603 14.4876C5.04067 10.9962 6.75494 7.78923 9.27208 5.27208C11.7892 2.75494 14.9962 1.04067 18.4876 0.346034C21.9789 -0.348605 25.5978 0.00757707 28.8868 1.36955C32.1757 2.73151 34.987 5.03811 36.9651 7.99769C38.9432 10.9573 39.9993 14.4369 40 17.9967C40.0004 20.3611 39.5351 22.7023 38.6305 24.8868C37.7259 27.0712 36.3998 29.0561 34.7279 30.7279C33.0561 32.3998 31.0712 33.7259 28.8868 34.6305C26.7023 35.5351 24.3611 36.0004 21.9967 36ZM21.9967 1.40363C18.7171 1.40624 15.5118 2.38107 12.786 4.20491C10.0603 6.02875 7.93639 8.61972 6.68282 11.6503C5.42926 14.681 5.10229 18.0152 5.74323 21.2316C6.38418 24.448 7.96427 27.4023 10.2838 29.7209C12.6033 32.0395 15.5582 33.6184 18.7748 34.2581C21.9915 34.8977 25.3256 34.5694 28.3557 33.3147C31.3859 32.0599 33.976 29.935 35.7988 27.2085C37.6215 24.482 38.5951 21.2764 38.5964 17.9967C38.5972 15.8169 38.1684 13.6582 37.3344 11.6443C36.5005 9.63028 35.2777 7.80044 33.736 6.25937C32.1943 4.7183 30.364 3.49623 28.3497 2.66305C26.3353 1.82986 24.1765 1.4019 21.9967 1.40363Z" fill="#282138"/>
</g>
</g>
<defs>
<filter id="filter0_d_66_25863" x="0" y="0" width="44" height="44" filterUnits="userSpaceOnUse" color-interpolation-filters="sRGB">
<feFlood flood-opacity="0" result="BackgroundImageFix"/>
<feColorMatrix in="SourceAlpha" type="matrix" values="0 0 0 0 0 0 0 0 0 0 0 0 0 0 0 0 0 0 127 0" result="hardAlpha"/>
<feOffset dy="4"/>
<feGaussianBlur stdDeviation="2"/>
<feComposite in2="hardAlpha" operator="out"/>
<feColorMatrix type="matrix" values="0 0 0 0 0 0 0 0 0 0 0 0 0 0 0 0 0 0 0.35 0"/>
<feBlend mode="normal" in2="BackgroundImageFix" result="effect1_dropShadow_66_25863"/>
<feBlend mode="normal" in="SourceGraphic" in2="effect1_dropShadow_66_25863" result="shape"/>
</filter>
<clipPath id="clip0_66_25863">
<rect width="36" height="36" fill="white" transform="translate(4)"/>
</clipPath>
</defs>
</svg>
