<svg width="307" height="160" viewBox="0 0 307 160" fill="none" xmlns="http://www.w3.org/2000/svg">
<rect x="0.5" y="0.5" width="306" height="159" fill="#202020"/>
<rect x="0.5" y="0.5" width="306" height="159" stroke="black"/>
<path fill-rule="evenodd" clip-rule="evenodd" d="M0 159L0 0L1 0L1 159H0Z" fill="#2C2C2C"/>
<path fill-rule="evenodd" clip-rule="evenodd" d="M30.6001 159L30.6001 0L31.6001 0L31.6001 159H30.6001Z" fill="#2C2C2C"/>
<path fill-rule="evenodd" clip-rule="evenodd" d="M61.2 159L61.2 0L62.2 0L62.2 159H61.2Z" fill="#2C2C2C"/>
<path fill-rule="evenodd" clip-rule="evenodd" d="M91.8 159L91.8 0L92.8 0L92.8 159H91.8Z" fill="#2C2C2C"/>
<path fill-rule="evenodd" clip-rule="evenodd" d="M122.4 159L122.4 0L123.4 0L123.4 159H122.4Z" fill="#2C2C2C"/>
<path fill-rule="evenodd" clip-rule="evenodd" d="M153 159V0L154 0V159H153Z" fill="#2C2C2C"/>
<path fill-rule="evenodd" clip-rule="evenodd" d="M183.6 159V0L184.6 0V159H183.6Z" fill="#2C2C2C"/>
<path fill-rule="evenodd" clip-rule="evenodd" d="M214.2 159V0L215.2 0V159H214.2Z" fill="#2C2C2C"/>
<path fill-rule="evenodd" clip-rule="evenodd" d="M244.8 159V0L245.8 0V159H244.8Z" fill="#2C2C2C"/>
<path fill-rule="evenodd" clip-rule="evenodd" d="M275.4 159V0L276.4 0V159H275.4Z" fill="#2C2C2C"/>
<path fill-rule="evenodd" clip-rule="evenodd" d="M306 159V0L307 0V159H306Z" fill="#2C2C2C"/>
<path fill-rule="evenodd" clip-rule="evenodd" d="M0 0L307 0V1L0 1V0Z" fill="#2C2C2C"/>
<path fill-rule="evenodd" clip-rule="evenodd" d="M0 26.3334L307 26.3334V27.3334L0 27.3334V26.3334Z" fill="#2C2C2C"/>
<path fill-rule="evenodd" clip-rule="evenodd" d="M0 52.6666L307 52.6666V53.6666L0 53.6666V52.6666Z" fill="#2C2C2C"/>
<path fill-rule="evenodd" clip-rule="evenodd" d="M0 79L307 79V80L0 80V79Z" fill="#2C2C2C"/>
<path fill-rule="evenodd" clip-rule="evenodd" d="M0 105.333L307 105.333V106.333L0 106.333V105.333Z" fill="#2C2C2C"/>
<path fill-rule="evenodd" clip-rule="evenodd" d="M0 131.667L307 131.667V132.667L0 132.667V131.667Z" fill="#2C2C2C"/>
<path fill-rule="evenodd" clip-rule="evenodd" d="M0 158L307 158V159L0 159V158Z" fill="#2C2C2C"/>
<path d="M153.069 80.5L92.7036 133H31.0449" stroke="white"/>
<path d="M276.817 26.5H214.943L153.069 80.5" stroke="#16EF94"/>
<path d="M154.362 80L276.817 79V26.5H215.159L154.362 80Z" fill="url(#paint0_linear_172_26376)"/>
<path d="M276.386 80L271.386 77.1132V82.8868L276.386 80ZM30.6138 80.5H271.886V79.5H30.6138V80.5Z" fill="#6F6F6F"/>
<path fill-rule="evenodd" clip-rule="evenodd" d="M30.6138 86L30.6138 74L31.6138 74L31.6138 86L30.6138 86Z" fill="#6F6F6F"/>
<path d="M25.7338 92.3H26.8338V100H25.2388L23.0938 94.148V100H21.9938V92.3H23.5888L25.7338 98.152V92.3ZM31.4495 98.889C31.9335 98.889 32.3295 98.493 32.3295 98.009V94.28C32.3295 93.785 31.9445 93.4 31.4495 93.4H30.5695C30.0745 93.4 29.6895 93.796 29.6895 94.28V98.009C29.6895 98.493 30.0855 98.889 30.5695 98.889H31.4495ZM28.5895 98.009V94.28C28.5895 93.18 29.4805 92.3 30.5695 92.3H31.4495C32.5495 92.3 33.4295 93.18 33.4295 94.28V98.009C33.4295 99.098 32.5495 100 31.4495 100H30.5695C29.4805 100 28.5895 99.098 28.5895 98.009ZM38.0562 94.28L38.6612 97.745L38.9252 94.5V92.3H40.0252V94.83L39.3652 100H38.4852L37.6052 96.711L36.7252 100H35.8452L35.1852 94.83V92.3H36.2852V94.5L36.5492 97.745L37.1542 94.28H38.0562Z" fill="#6F6F6F"/>
<path fill-rule="evenodd" clip-rule="evenodd" d="M91.8069 86L91.8069 74L92.8069 74L92.8069 86L91.8069 86Z" fill="#6F6F6F"/>
<path d="M89.6869 96.733V92.3H93.8669V93.4H90.7869V95.402L91.6999 94.786H92.5469C93.6359 94.786 94.5269 95.666 94.5269 96.766V98.02C94.5269 99.12 93.6469 100 92.5469 100H91.6669C90.5779 100 89.6869 99.12 89.6869 98.02V97.91H90.7869V98.02C90.7869 98.504 91.1829 98.9 91.6669 98.9H92.5469C93.0419 98.9 93.4269 98.515 93.4269 98.02V96.766C93.4269 96.282 93.0309 95.886 92.5469 95.886H92.0409L90.7869 96.733H89.6869Z" fill="#6F6F6F"/>
<path d="M92.3069 112L89.4201 117L95.1936 117L92.3069 112ZM92.8069 131L92.8069 116.5L91.8069 116.5L91.8069 131L92.8069 131Z" fill="#6F6F6F"/>
<rect x="63.3069" y="131.5" width="58" height="13" fill="#2C2C2C"/>
<rect x="63.3069" y="131.5" width="58" height="13" stroke="#6F6F6F"/>
<path d="M71.3069 136.72C71.3069 137.226 71.1199 137.699 70.8009 138.04C71.2409 138.403 71.5269 138.953 71.5269 139.58V140.02C71.5269 141.12 70.6469 142 69.5469 142H66.6869V134.3H69.3269C70.4269 134.3 71.3069 135.18 71.3069 136.28V136.72ZM67.7869 140.9H69.5469C70.0419 140.9 70.4269 140.515 70.4269 140.02V139.58C70.4269 139.085 70.0419 138.7 69.5469 138.7H67.7869V140.9ZM67.7869 137.6H69.3269C69.8219 137.6 70.2069 137.215 70.2069 136.72V136.28C70.2069 135.785 69.8219 135.4 69.3269 135.4H67.7869V137.6ZM78.1226 140.009C78.1226 141.098 77.2316 142 76.1426 142H75.2626C74.1626 142 73.2826 141.098 73.2826 140.009V134.3H74.3826V140.009C74.3826 140.493 74.7786 140.889 75.2626 140.889H76.1426C76.6266 140.889 77.0226 140.493 77.0226 140.009V134.3H78.1226V140.009ZM81.7483 142V139.261L79.8783 136.94V134.3H80.9783V136.544L82.2763 138.161H82.2983L83.6183 136.434V134.3H84.7183V136.808L82.8483 139.261V142H81.7483ZM96.8097 136.28C96.8097 135.785 96.4247 135.4 95.9297 135.4H95.0497C94.5547 135.4 94.1697 135.796 94.1697 136.28V140.009C94.1697 140.493 94.5657 140.889 95.0497 140.889H95.9297C96.4137 140.889 96.8097 140.493 96.8097 140.009V139.404H97.9097V140.009C97.9097 141.098 97.0297 142 95.9297 142H95.0497C93.9607 142 93.0697 141.098 93.0697 140.009V136.28C93.0697 135.18 93.9607 134.3 95.0497 134.3H95.9297C97.0297 134.3 97.9097 135.18 97.9097 136.28V136.885H96.8097V136.28ZM100.765 142H99.6654V139.47L101.535 134.3H102.635L104.505 139.47V142H103.405V140.218H100.765V142ZM100.963 139.118H103.207L102.096 136.038H102.074L100.963 139.118ZM107.361 134.3V140.9H111.101V142H106.261V134.3H107.361ZM113.957 134.3V140.9H117.697V142H112.857V134.3H113.957Z" fill="white"/>
<path fill-rule="evenodd" clip-rule="evenodd" d="M153 86L153 74L154 74L154 86L153 86Z" fill="#6F6F6F"/>
<path d="M152.22 98.9V100H147.38V98.9H149.25V93.576L147.38 94.676V93.4L149.25 92.3H150.35V98.9H152.22ZM156.836 98.889C157.023 98.889 157.188 98.834 157.331 98.735L155.076 95.061V98.009C155.076 98.493 155.472 98.889 155.956 98.889H156.836ZM153.976 98.009V94.28C153.976 93.18 154.867 92.3 155.956 92.3H156.836C157.936 92.3 158.816 93.18 158.816 94.28V98.009C158.816 99.098 157.936 100 156.836 100H155.956C154.867 100 153.976 99.098 153.976 98.009ZM155.45 93.554L157.716 97.239V94.28C157.716 93.785 157.331 93.4 156.836 93.4H155.956C155.769 93.4 155.593 93.455 155.45 93.554Z" fill="#6F6F6F"/>
<path fill-rule="evenodd" clip-rule="evenodd" d="M214.193 86L214.193 74L215.193 74L215.193 86L214.193 86Z" fill="#6F6F6F"/>
<path d="M213.413 98.9V100H208.573V98.9H210.443V93.576L208.573 94.676V93.4L210.443 92.3H211.543V98.9H213.413ZM215.169 96.733V92.3H219.349V93.4H216.269V95.402L217.182 94.786H218.029C219.118 94.786 220.009 95.666 220.009 96.766V98.02C220.009 99.12 219.129 100 218.029 100H217.149C216.06 100 215.169 99.12 215.169 98.02V97.91H216.269V98.02C216.269 98.504 216.665 98.9 217.149 98.9H218.029C218.524 98.9 218.909 98.515 218.909 98.02V96.766C218.909 96.282 218.513 95.886 218.029 95.886H217.523L216.269 96.733H215.169Z" fill="#6F6F6F"/>
<path d="M214.693 112L211.806 117L217.58 117L214.693 112ZM215.193 131L215.193 116.5L214.193 116.5L214.193 131L215.193 131Z" fill="#6F6F6F"/>
<rect x="182.193" y="131.5" width="65" height="13" fill="#2C2C2C"/>
<rect x="182.193" y="131.5" width="65" height="13" stroke="#6F6F6F"/>
<path d="M185.573 139.514H186.673V139.954C186.673 140.471 187.102 140.9 187.619 140.9H188.356C188.917 140.9 189.313 140.548 189.313 140.064C189.313 138.546 185.683 138.216 185.683 136.126C185.683 135.048 186.53 134.3 187.729 134.3H188.246C189.379 134.3 190.303 135.213 190.303 136.346V136.676H189.203V136.346C189.203 135.818 188.774 135.4 188.246 135.4H187.729C187.135 135.4 186.783 135.675 186.783 136.126C186.783 137.292 190.413 137.743 190.413 140.064C190.413 141.164 189.522 142 188.356 142H187.619C186.486 142 185.573 141.087 185.573 139.954V139.514ZM197.009 134.3V135.4H193.269V137.413H196.569V138.513H193.269V140.9H197.009V142H192.169V134.3H197.009ZM199.865 134.3V140.9H203.605V142H198.765V134.3H199.865ZM206.46 134.3V140.9H210.2V142H205.36V134.3H206.46ZM222.292 136.28C222.292 135.785 221.907 135.4 221.412 135.4H220.532C220.037 135.4 219.652 135.796 219.652 136.28V140.009C219.652 140.493 220.048 140.889 220.532 140.889H221.412C221.896 140.889 222.292 140.493 222.292 140.009V139.404H223.392V140.009C223.392 141.098 222.512 142 221.412 142H220.532C219.443 142 218.552 141.098 218.552 140.009V136.28C218.552 135.18 219.443 134.3 220.532 134.3H221.412C222.512 134.3 223.392 135.18 223.392 136.28V136.885H222.292V136.28ZM226.247 142H225.147V139.47L227.017 134.3H228.117L229.987 139.47V142H228.887V140.218H226.247V142ZM226.445 139.118H228.689L227.578 136.038H227.556L226.445 139.118ZM232.843 134.3V140.9H236.583V142H231.743V134.3H232.843ZM239.439 134.3V140.9H243.179V142H238.339V134.3H239.439Z" fill="white"/>
<path fill-rule="evenodd" clip-rule="evenodd" d="M275.386 86L275.386 74L276.386 74L276.386 86L275.386 86Z" fill="#6F6F6F"/>
<path d="M265.106 94.94C265.106 96.04 264.226 96.92 263.126 96.92H261.366V100H260.266V92.3H263.126C264.226 92.3 265.106 93.18 265.106 94.28V94.94ZM261.366 95.82H263.126C263.621 95.82 264.006 95.435 264.006 94.94V94.28C264.006 93.785 263.621 93.4 263.126 93.4H261.366V95.82ZM271.702 100H270.492L269.095 96.92H267.962V100H266.862V92.3H269.722C270.822 92.3 271.702 93.18 271.702 94.28V94.94C271.702 95.853 271.097 96.612 270.261 96.843L271.702 100ZM267.962 95.82H269.722C270.217 95.82 270.602 95.435 270.602 94.94V94.28C270.602 93.785 270.217 93.4 269.722 93.4H267.962V95.82ZM273.458 92.3H278.298V93.4H276.428V98.9H278.298V100H273.458V98.9H275.328V93.4H273.458V92.3ZM283.793 94.28C283.793 93.785 283.408 93.4 282.913 93.4H282.033C281.538 93.4 281.153 93.796 281.153 94.28V98.009C281.153 98.493 281.549 98.889 282.033 98.889H282.913C283.397 98.889 283.793 98.493 283.793 98.009V97.404H284.893V98.009C284.893 99.098 284.013 100 282.913 100H282.033C280.944 100 280.053 99.098 280.053 98.009V94.28C280.053 93.18 280.944 92.3 282.033 92.3H282.913C284.013 92.3 284.893 93.18 284.893 94.28V94.885H283.793V94.28ZM291.489 92.3V93.4H287.749V95.413H291.049V96.513H287.749V98.9H291.489V100H286.649V92.3H291.489Z" fill="#6F6F6F"/>
<path d="M211.72 49.94C211.72 51.04 210.84 51.92 209.74 51.92H207.98V55H206.88V47.3H209.74C210.84 47.3 211.72 48.18 211.72 49.28V49.94ZM207.98 50.82H209.74C210.235 50.82 210.62 50.435 210.62 49.94V49.28C210.62 48.785 210.235 48.4 209.74 48.4H207.98V50.82ZM218.316 55H217.106L215.709 51.92H214.576V55H213.476V47.3H216.336C217.436 47.3 218.316 48.18 218.316 49.28V49.94C218.316 50.853 217.711 51.612 216.875 51.843L218.316 55ZM214.576 50.82H216.336C216.831 50.82 217.216 50.435 217.216 49.94V49.28C217.216 48.785 216.831 48.4 216.336 48.4H214.576V50.82ZM222.931 53.889C223.415 53.889 223.811 53.493 223.811 53.009V49.28C223.811 48.785 223.426 48.4 222.931 48.4H222.051C221.556 48.4 221.171 48.796 221.171 49.28V53.009C221.171 53.493 221.567 53.889 222.051 53.889H222.931ZM220.071 53.009V49.28C220.071 48.18 220.962 47.3 222.051 47.3H222.931C224.031 47.3 224.911 48.18 224.911 49.28V53.009C224.911 54.098 224.031 55 222.931 55H222.051C220.962 55 220.071 54.098 220.071 53.009ZM231.507 47.3V48.4H227.767V50.743H231.067V51.843H227.767V55H226.667V47.3H231.507ZM233.263 47.3H238.103V48.4H236.233V53.9H238.103V55H233.263V53.9H235.133V48.4H233.263V47.3ZM239.859 47.3H244.699V48.4H242.829V55H241.729V48.4H239.859V47.3Z" fill="#16EF94"/>
<rect x="121.5" y="25.5" width="65" height="13" fill="#2C2C2C"/>
<rect x="121.5" y="25.5" width="65" height="13" stroke="#6F6F6F"/>
<path d="M129.5 30.72C129.5 31.226 129.313 31.699 128.994 32.04C129.434 32.403 129.72 32.953 129.72 33.58V34.02C129.72 35.12 128.84 36 127.74 36H124.88V28.3H127.52C128.62 28.3 129.5 29.18 129.5 30.28V30.72ZM125.98 34.9H127.74C128.235 34.9 128.62 34.515 128.62 34.02V33.58C128.62 33.085 128.235 32.7 127.74 32.7H125.98V34.9ZM125.98 31.6H127.52C128.015 31.6 128.4 31.215 128.4 30.72V30.28C128.4 29.785 128.015 29.4 127.52 29.4H125.98V31.6ZM136.316 36H135.106L133.709 32.92H132.576V36H131.476V28.3H134.336C135.436 28.3 136.316 29.18 136.316 30.28V30.94C136.316 31.853 135.711 32.612 134.875 32.843L136.316 36ZM132.576 31.82H134.336C134.831 31.82 135.216 31.435 135.216 30.94V30.28C135.216 29.785 134.831 29.4 134.336 29.4H132.576V31.82ZM142.911 28.3V29.4H139.171V31.413H142.471V32.513H139.171V34.9H142.911V36H138.071V28.3H142.911ZM145.767 36H144.667V33.47L146.537 28.3H147.637L149.507 33.47V36H148.407V34.218H145.767V36ZM145.965 33.118H148.209L147.098 30.038H147.076L145.965 33.118ZM152.363 36H151.263V28.3H152.363V31.6H152.781L154.805 28.3H156.103L153.738 32.15L156.103 36H154.805L152.781 32.7H152.363V36ZM162.699 28.3V29.4H158.959V31.413H162.259V32.513H158.959V34.9H162.699V36H157.859V28.3H162.699ZM168.194 28.3H169.294V30.83L167.424 36H166.324L164.454 30.83V28.3H165.554V30.632L166.863 34.262H166.885L168.194 30.632V28.3ZM175.89 28.3V29.4H172.15V31.413H175.45V32.513H172.15V34.9H175.89V36H171.05V28.3H175.89ZM181.386 28.3H182.486V36H180.891L178.746 30.148V36H177.646V28.3H179.241L181.386 34.152V28.3Z" fill="white"/>
<path d="M154 72L156.887 67L151.113 67L154 72ZM153.5 39L153.5 67.5L154.5 67.5L154.5 39L153.5 39Z" fill="#6F6F6F"/>
<defs>
<linearGradient id="paint0_linear_172_26376" x1="205.76" y1="20" x2="205.76" y2="79" gradientUnits="userSpaceOnUse">
<stop stop-color="#16EF94" stop-opacity="0.5"/>
<stop offset="1" stop-color="#16EF94" stop-opacity="0"/>
</linearGradient>
</defs>
</svg>
