<svg width="13" height="13" viewBox="0 0 13 13" fill="none" xmlns="http://www.w3.org/2000/svg">
<path d="M6.75 12.5C10.075 12.5 12.75 9.82502 12.75 6.5C12.75 3.17498 10.075 0.5 6.75 0.5C3.42498 0.5 0.75 3.17498 0.75 6.5C0.75 9.82502 3.42498 12.5 6.75 12.5Z" fill="#2775CA"/>
<path d="M8.40003 7.44999C8.40003 6.57501 7.87503 6.27501 6.82503 6.15003C6.07503 6.05001 5.92503 5.85003 5.92503 5.49999C5.92503 5.14995 6.17505 4.92501 6.67503 4.92501C7.12503 4.92501 7.37505 5.07501 7.50003 5.45001C7.52505 5.52501 7.60005 5.57499 7.67505 5.57499H8.07501C8.17503 5.57499 8.25003 5.49999 8.25003 5.40003V5.37501C8.15001 4.82499 7.70001 4.40001 7.12503 4.35003V3.75003C7.12503 3.65001 7.05003 3.57501 6.92505 3.54999H6.55005C6.45003 3.54999 6.37503 3.62499 6.35001 3.75003V4.32501C5.60001 4.42503 5.12505 4.92501 5.12505 5.55003C5.12505 6.37503 5.62503 6.69999 6.67503 6.82503C7.37505 6.95001 7.60005 7.10001 7.60005 7.50003C7.60005 7.90005 7.25001 8.17503 6.77505 8.17503C6.12501 8.17503 5.90001 7.89999 5.82501 7.52499C5.80005 7.42503 5.72505 7.37499 5.65005 7.37499H5.22501C5.12505 7.37499 5.05005 7.44999 5.05005 7.55001V7.57503C5.15001 8.19999 5.55003 8.64999 6.37503 8.77503V9.37503C6.37503 9.47499 6.45003 9.54999 6.57501 9.57501H6.95001C7.05003 9.57501 7.12503 9.50001 7.15005 9.37503V8.77503C7.90005 8.64999 8.40003 8.12499 8.40003 7.44999Z" fill="white"/>
<path d="M5.475 10.075C3.525 9.375 2.52498 7.2 3.25002 5.27496C3.62502 4.22496 4.45002 3.42498 5.475 3.04998C5.57502 3 5.625 2.925 5.625 2.79996V2.44998C5.625 2.34996 5.57502 2.27496 5.475 2.25C5.44998 2.25 5.4 2.25 5.37498 2.27496C3 3.02496 1.69998 5.55 2.44998 7.92498C2.89998 9.32496 3.975 10.4 5.37498 10.85C5.475 10.9 5.57502 10.85 5.59998 10.75C5.625 10.725 5.625 10.7 5.625 10.65V10.3C5.625 10.225 5.55 10.125 5.475 10.075ZM8.12502 2.27496C8.025 2.22498 7.92498 2.27496 7.90002 2.37498C7.875 2.4 7.875 2.42496 7.875 2.475V2.82498C7.875 2.925 7.95 3.02496 8.025 3.075C9.975 3.77496 10.975 5.94996 10.25 7.875C9.87498 8.925 9.04998 9.72498 8.025 10.1C7.92498 10.15 7.875 10.225 7.875 10.35V10.7C7.875 10.8 7.92498 10.875 8.025 10.9C8.05002 10.9 8.1 10.9 8.12502 10.875C10.5 10.125 11.8 7.59996 11.05 5.22498C10.6 3.79998 9.49998 2.72496 8.12502 2.27496Z" fill="white"/>
</svg>
