<svg width="16" height="15" viewBox="0 0 16 15" fill="none" xmlns="http://www.w3.org/2000/svg">
<path d="M13.9276 5.76697L11.8779 7.66392C11.9918 8.00936 12.0487 8.37821 12.0487 8.74706C12.0487 9.74823 11.6249 10.6909 10.8657 11.3993C10.1003 12.1077 9.08177 12.4941 8 12.4941C6.91823 12.4941 5.89972 12.1019 5.13425 11.3993C4.36879 10.6909 3.95127 9.74823 3.95127 8.74706C3.95127 8.37235 4.0082 8.00936 4.12207 7.66392L2.06607 5.76697C1.54733 6.65104 1.25 7.66978 1.25 8.75292C1.25 12.2014 4.2739 15 8 15C11.7261 15 14.75 12.2014 14.75 8.75292C14.75 7.66978 14.4527 6.65104 13.9276 5.76697Z" fill="#0657F9"/>
<path d="M6.64625 9.99414H9.34752V6.02459L13.9466 1.76815L12.0361 0L8.00005 3.73536L3.96396 0L2.05347 1.76815L6.64625 6.01874V9.99414Z" fill="#0657F9"/>
</svg>
