<svg width="238" height="238" fill="none" xmlns="http://www.w3.org/2000/svg"><g clip-path="url(#a)"><path d="M25.668 74.308v89.385a15.96 15.96 0 0 0 7.986 13.827l77.378 44.702a15.983 15.983 0 0 0 15.954 0l77.377-44.702a15.96 15.96 0 0 0 7.987-13.827V74.308a15.962 15.962 0 0 0-7.987-13.828l-77.377-44.702a15.982 15.982 0 0 0-15.954 0L33.636 60.48c-4.938 2.844-7.968 8.12-7.968 13.828Z" fill="#213147"/><path d="m135.889 136.336-11.036 30.275a3.883 3.883 0 0 0 0 2.601l18.985 52.093 21.958-12.686-26.354-72.283c-.598-1.665-2.955-1.665-3.553 0ZM158.015 85.422c-.599-1.665-2.956-1.665-3.554 0l-11.035 30.275a3.87 3.87 0 0 0 0 2.601l31.104 85.287 21.958-12.686-38.473-105.477Z" fill="#12AAFF"/><path d="M119 19.127c.542 0 1.085.15 1.571.412l83.737 48.37a3.152 3.152 0 0 1 1.571 2.712v96.72a3.128 3.128 0 0 1-1.571 2.713l-83.737 48.37c-.467.28-1.029.411-1.571.411a3.334 3.334 0 0 1-1.571-.411l-83.737-48.332a3.152 3.152 0 0 1-1.57-2.713V70.64c0-1.123.598-2.152 1.57-2.713l83.737-48.37a3.15 3.15 0 0 1 1.571-.43ZM119 5a17.21 17.21 0 0 0-8.641 2.32L26.641 55.67A17.281 17.281 0 0 0 18 70.64v96.72a17.28 17.28 0 0 0 8.641 14.969l83.737 48.369a17.341 17.341 0 0 0 8.641 2.321 17.2 17.2 0 0 0 8.641-2.321l83.736-48.369a17.279 17.279 0 0 0 8.641-14.969V70.64a17.28 17.28 0 0 0-8.641-14.97L127.641 7.32A17.21 17.21 0 0 0 119 5Z" fill="#9DCCED"/><path d="m63.62 203.698 7.705-21.107 15.505 12.892-14.495 13.248-8.716-5.033Z" fill="#213147"/><path d="M111.949 63.717H90.72c-1.59 0-3.011.992-3.554 2.488L41.66 191.011l21.958 12.687 50.108-137.436c.467-1.235-.449-2.545-1.777-2.545ZM149.095 63.717h-21.229c-1.59 0-3.011.992-3.554 2.488L72.353 208.712l21.959 12.687 56.56-155.137c.449-1.235-.468-2.545-1.777-2.545Z" fill="#fff"/></g><defs><clipPath id="a"><path fill="#fff" transform="translate(18 5)" d="M0 0h202v228H0z"/></clipPath></defs></svg>