<svg width="26" height="26" fill="none" xmlns="http://www.w3.org/2000/svg"><circle cx="13" cy="13" r="13" fill="#fff"/><path d="m21.2 5.457-.714.713a10.106 10.106 0 0 1 0 13.64l.714.715a11.127 11.127 0 0 0 0-15.085v.017zm-15.013.062a10.106 10.106 0 0 1 13.64 0l.714-.714a11.127 11.127 0 0 0-15.085 0l.731.714zm-.669 14.299a10.107 10.107 0 0 1 0-13.633l-.714-.714a11.127 11.127 0 0 0 0 15.084l.714-.737zm14.3.659a10.107 10.107 0 0 1-13.64 0l-.714.714a11.127 11.127 0 0 0 15.084 0l-.73-.714z" fill="#5A5564"/><path d="M17.507 10.618c-.143-1.49-1.428-1.99-3.053-2.142V6.425h-1.257v2.013h-1.004V6.425h-1.247v2.066H8.398v1.344s.928-.017.914 0a.65.65 0 0 1 .713.552v5.654a.44.44 0 0 1-.152.307.436.436 0 0 1-.323.11c.016.014-.914 0-.914 0l-.238 1.501h2.525v2.099h1.256V17.99h1.004v2.058h1.26v-2.075c2.122-.128 3.602-.652 3.787-2.639.15-1.599-.602-2.313-1.803-2.6.73-.36 1.182-1.026 1.08-2.116zm-1.76 4.469c0 1.56-2.676 1.383-3.527 1.383V13.7c.851.002 3.526-.243 3.526 1.387zm-.584-3.903c0 1.428-2.232 1.254-2.941 1.254V9.921c.709 0 2.941-.224 2.941 1.263z" fill="#F09242"/><path d="M12.998 26a13 13 0 1 1 .005-26 13 13 0 0 1-.005 26zm0-24.986a11.98 11.98 0 1 0 .019 23.958 11.98 11.98 0 0 0-.02-23.958z" fill="#282138"/></svg>