<svg width="32" height="32" fill="none" xmlns="http://www.w3.org/2000/svg"><g clip-path="url(#a)"><mask id="b" fill="#fff"><path fill-rule="evenodd" clip-rule="evenodd" d="M15.971 32c8.82 0 15.971-7.163 15.971-16s-7.15-16-15.97-16c-2.168 0-4.234.432-6.119 1.216A5.081 5.081 0 0 0 6.66.093 5.113 5.113 0 0 0 1.552 5.21a5.1 5.1 0 0 0 .702 2.59A15.947 15.947 0 0 0 0 16c0 8.837 7.15 16 15.971 16Z"/></mask><path fill-rule="evenodd" clip-rule="evenodd" d="M15.971 32c8.82 0 15.971-7.163 15.971-16s-7.15-16-15.97-16c-2.168 0-4.234.432-6.119 1.216A5.081 5.081 0 0 0 6.66.093 5.113 5.113 0 0 0 1.552 5.21a5.1 5.1 0 0 0 .702 2.59A15.947 15.947 0 0 0 0 16c0 8.837 7.15 16 15.971 16Z" fill="#002EFF"/><path d="M9.853 1.216 2.964 9.792l5.087 4.086 6.025-2.505L9.853 1.216ZM2.253 7.8l9.446 5.637 3.337-5.59-3.296-5.616-9.486 5.569ZM20.944 16c0 2.78-2.245 5-4.972 5v22c14.915 0 26.971-12.107 26.971-27h-22Zm-4.972-5c2.727 0 4.971 2.22 4.971 5h22c0-14.893-12.056-27-26.97-27v22Zm-1.895.373A4.9 4.9 0 0 1 15.971 11v-22c-3.642 0-7.142.729-10.34 2.059l8.445 20.314Zm-7.416-.28a5.92 5.92 0 0 1-3.696-1.301L16.742-7.36A16.08 16.08 0 0 0 6.66-10.907v22Zm5.892-5.883c0 3.23-2.62 5.883-5.892 5.883v-22c-8.915 0-16.108 7.235-16.108 16.117h22Zm-.812-2.978c.519.884.812 1.914.812 2.978h-22a16.1 16.1 0 0 0 2.215 8.16L11.74 2.231ZM11 16c0-.958.258-1.822.7-2.562L-7.193 2.163A26.947 26.947 0 0 0-11 16h22Zm4.971 5C13.244 21 11 18.78 11 16h-22c0 14.893 12.057 27 26.971 27V21Z" fill="#002EFF" mask="url(#b)"/><path fill-rule="evenodd" clip-rule="evenodd" d="m8.914 12.364 3.929-6.138-5.858 5.868a.89.89 0 0 0 .41 1.492l3.105.787c-.277.437-.59.987-.835 1.57-.223.535-.41 1.147-.428 1.753-.02.62.14 1.286.664 1.81.787.79 1.358 1.064 1.815 1.284l.1.048c.212.104.37.188.536.322.168.134.372.34.634.701l.148.206c.572.794 1.469 2.041 2.626 2.869.646.462 1.413.825 2.29.896.887.072 1.815-.162 2.758-.77.904-.584 1.5-1.234 1.78-1.99.283-.763.199-1.51-.006-2.187-.188-.62-.502-1.253-.795-1.844l-.055-.111c-.32-.647-.622-1.272-.824-1.927-.392-1.278-.126-1.832.041-2.051a.926.926 0 0 1 .397-.299l.01-.003.02-.005.03-.01h.001l.139-.046.366-.12 1.116-.37c.406-.136.817-.275 1.13-.383a23.777 23.777 0 0 0 .528-.19 1.383 1.383 0 0 0 .131-.062h.002a.781.781 0 0 0 .376-.874l-.001-.002a.807.807 0 0 0-.143-.293 1.825 1.825 0 0 0-.081-.1 8.38 8.38 0 0 0-.2-.219c-.095-.102-1.958-1.992-3.523-3.58-1.083-1.1-2.024-2.054-2.136-2.17.013.013 1.015 1.593 2.007 3.156.972 1.532 1.934 3.049 1.947 3.062a198.353 198.353 0 0 1-1.64.545l-.364.12-.117.04-.017.004a2.28 2.28 0 0 0-.408.17c-.238.126-.542.339-.804.683-.555.726-.788 1.841-.292 3.455.243.791.6 1.522.916 2.16l.031.063c.315.636.575 1.161.724 1.653.149.49.159.863.037 1.193-.124.334-.43.748-1.164 1.222-.694.448-1.286.569-1.792.528-.518-.042-1.02-.26-1.512-.611-.937-.67-1.688-1.712-2.281-2.532l-.139-.192c-.323-.445-.62-.76-.92-1.002a4.162 4.162 0 0 0-.828-.506l-.105-.05c-.403-.194-.79-.38-1.39-.982-.139-.138-.22-.338-.21-.661.01-.339.122-.75.309-1.199.373-.893.966-1.731 1.203-2.048a.893.893 0 0 0-.495-1.4l-2.893-.733Zm6.553 6.367s-1.198 0-1.997-.737c-.799-.736 0-2.208 0-2.208s.233.147 1.115 1.178c.881 1.03.881 1.767.881 1.767Z" fill="#fff"/><ellipse cx="6.66" cy="5.211" rx="3.944" ry="3.951" fill="url(#c)"/><path d="M5.188 7.09h.887V5.714h.461l.768 1.374h1.042l-.928-1.482c.512-.194.808-.627.808-1.18 0-.775-.552-1.328-1.451-1.328H5.187v3.99ZM6.7 3.92c.364 0 .598.205.598.507 0 .302-.234.507-.598.507h-.626V3.92h.626Z" fill="#fff"/></g><defs><radialGradient id="c" cx="0" cy="0" r="1" gradientUnits="userSpaceOnUse" gradientTransform="matrix(4.91419 6.15385 -6.1514 4.91223 4.332 2.101)"><stop stop-color="#22E1FF"/><stop offset="1" stop-color="#22E1FF" stop-opacity="0"/></radialGradient><clipPath id="a"><path fill="#fff" d="M0 0h31.942v32H0z"/></clipPath></defs></svg>