<svg width="39" height="39" fill="none" xmlns="http://www.w3.org/2000/svg"><circle cx="19.5" cy="19.5" r="19.5" fill="#50AF95"/><path fill-rule="evenodd" clip-rule="evenodd" d="M21.636 20.176c-.119.008-.735.043-2.11.043a49.32 49.32 0 0 1-2.143-.043C13.156 20.003 10 19.318 10 18.498s3.155-1.503 7.383-1.68v2.676a34.21 34.21 0 0 0 2.161.062c1.313 0 1.97-.05 2.088-.061V16.82c4.218.175 7.367.86 7.367 1.677 0 .818-3.147 1.503-7.367 1.677h.004Zm0-3.632V14.15h5.887V10.5H11.496v3.65h5.885v2.393C12.598 16.748 9 17.63 9 18.686c0 1.057 3.598 1.938 8.381 2.143V28.5h4.254v-7.674c4.773-.204 8.365-1.085 8.365-2.14 0-1.056-3.589-1.937-8.365-2.143l.001.001Z" fill="#fff"/></svg>