<svg xmlns="http://www.w3.org/2000/svg" width="90" height="24" fill="none"><path fill="#EBFF00" d="M11.62.684h4.305l-.753 4.238h-4.305L11.62.684Z"/><path fill="#EBFF00" d="M1.258 4.922h9.609L9.608 12H0l1.258-7.078ZM17.96 19.078H8.354L9.61 12h9.608l-1.258 7.078ZM7.599 23.316H3.294l.753-4.239h4.306l-.754 4.24Z"/><path fill="#fff" d="m23.408 15.458.026-.54h3.107c.017 0 .026.027.026.078a.756.756 0 0 1-.026.18.756.756 0 0 0-.026.18c0 .153.052.359.155.616.12.24.282.496.488.77.205.274.582.514 1.13.72.547.188 1.207.282 1.977.282 1.37 0 2.423-.231 3.159-.694.753-.462 1.19-1.01 1.31-1.643.017-.12.025-.231.025-.334 0-.462-.205-.873-.616-1.233-.41-.376-1.002-.659-1.772-.847-.753-.189-1.584-.403-2.491-.642a54.222 54.222 0 0 1-2.466-.77c-.753-.275-1.327-.668-1.72-1.182-.394-.53-.591-1.104-.591-1.72 0-.172.009-.343.026-.514.222-1.541 1.01-2.748 2.362-3.622 1.37-.89 3.09-1.335 5.162-1.335 1.25 0 2.303.154 3.16.462.855.308 1.455.694 1.797 1.156.36.445.616.873.77 1.284.155.41.232.753.232 1.027v.154l-.026.463h-3.082c0-.052-.008-.12-.026-.206 0-.103-.06-.274-.18-.513a1.63 1.63 0 0 0-.462-.617c-.188-.188-.513-.35-.975-.488-.446-.154-.985-.23-1.618-.23-1.182 0-2.14.222-2.877.667-.736.428-1.138.993-1.207 1.695v.103c0 .376.171.702.514.975.36.274.847.497 1.464.668.616.154 1.292.308 2.029.463.753.136 1.489.325 2.208.564.72.223 1.361.505 1.926.848.582.342.985.779 1.207 1.31.24.513.36 1.018.36 1.515 0 .274-.026.565-.077.873-.274 1.541-1.113 2.74-2.517 3.596-1.404.838-3.219 1.258-5.445 1.258-1.284 0-2.38-.18-3.287-.54-.907-.376-1.558-.821-1.952-1.335a7.604 7.604 0 0 1-.873-1.566c-.205-.514-.308-.96-.308-1.336ZM38.962 10.835l.436-2.414h1.541l.59-3.364h2.852l-.591 3.364h2.8l-.437 2.415h-2.8l-.837 4.739-.002-.001-.159.91-.055.31a2.425 2.425 0 0 0-.006.04l-.126.724h.572c.054.004.112.006.177.006h2.054l-.436 2.414H40.558c-.894 0-1.57-.81-1.409-1.69l.999-5.46.002.002.353-1.995h-1.541ZM50.71 8.421h-2.748l-2.054 11.557h2.825l.693-3.878v-.103a.422.422 0 0 0 .026-.102l.129-.694c.342-1.78.753-2.953 1.232-3.518.497-.565 1.378-.848 2.645-.848h1.285l.436-2.414h-1.361c-1.387 0-2.525.583-3.416 1.747l.309-1.747ZM54.953 20.902l-.437 2.414 3.094-.002a2.66 2.66 0 0 0 2.294-1.316l7.954-13.577h-2.98l-4.622 8.142-1.618-8.142h-2.98l2.723 11.377-.565 1.106-2.863-.002ZM72.24 3.465h-2.825l-2.927 16.513h2.825l.462-2.645 2.286-2.08 2.748 4.725h3.133l-3.775-6.677 5.316-4.88h-3.39l-5.65 5.214 1.797-10.17Z"/><path fill="#fff" fill-rule="evenodd" d="M77.955 14.226c.326-1.798 1.113-3.254 2.363-4.366 1.267-1.13 2.86-1.695 4.777-1.695 1.849 0 3.124.47 3.826 1.412.72.942 1.079 1.96 1.079 3.056 0 .736-.12 1.558-.36 2.466h-9.014a3.12 3.12 0 0 0-.026.385c0 .702.232 1.301.694 1.798.462.479 1.164.719 2.106.719.41 0 .796-.052 1.155-.154.36-.12.642-.257.848-.411.205-.154.376-.308.513-.463.155-.154.257-.282.309-.385l.102-.18h2.902a3.35 3.35 0 0 1-.18.411c-.068.172-.273.48-.616.925a6.162 6.162 0 0 1-1.13 1.181c-.41.325-1.001.625-1.772.9-.77.273-1.618.41-2.542.41-1.85 0-3.176-.47-3.98-1.412-.788-.942-1.182-2.02-1.182-3.236 0-.428.043-.882.128-1.361Zm9.297-1.156c.051-.206.077-.394.077-.565 0-.531-.223-1.01-.668-1.438-.428-.446-1.07-.668-1.926-.668-.924 0-1.72.257-2.388.77a3.684 3.684 0 0 0-1.361 1.9h6.266Z" clip-rule="evenodd"/></svg>